<?xml version="1.0" encoding="UTF-8"?>
<!DOCTYPE svg PUBLIC "-//W3C//DTD SVG 1.1//EN" "http://www.w3.org/Graphics/SVG/1.1/DTD/svg11.dtd">
<!-- Creator: CorelDRAW 2020 (64-Bit) -->
<svg xmlns="http://www.w3.org/2000/svg" xml:space="preserve" width="15.0386in" height="9.29039in" version="1.1" style="shape-rendering:geometricPrecision; text-rendering:geometricPrecision; image-rendering:optimizeQuality; fill-rule:evenodd; clip-rule:evenodd"
viewBox="0 0 10984.99 6786.2"
 xmlns:xlink="http://www.w3.org/1999/xlink"
 xmlns:xodm="http://www.corel.com/coreldraw/odm/2003">
 <defs>
  <style type="text/css">
   <![CDATA[
    .str0 {stroke:black;stroke-width:50.73;stroke-linecap:square;stroke-miterlimit:22.9256}
    .fil0 {fill:none}
   ]]>
  </style>
 </defs>
 <g id="Layer_x0020_1">
  <metadata id="CorelCorpID_0Corel-Layer"/>
  <path class="fil0 str0" d="M26.25 6759.95c48.91,-1374.19 1813.11,-1271.27 1899.27,-1272.67 2260.98,-36.74 1472.12,-1144.87 3168.92,-1770.08 65.14,-23.99 -401.44,198.69 -435.86,335.56 228.17,72.22 586.81,-311.94 671.82,-509.41 8.52,-397.44 103.96,-2226.46 -439.47,-2347.28 -110.75,-19.3 -181.05,78.35 -235.09,132.38 78.15,568.55 -412.96,990.65 -412.96,1412.45 0,211.84 -12.7,266.33 184.7,432.12 442.22,342.09 735.61,444.48 216.22,-46.33 -401.03,-342.9 -487.65,-658.81 -942.13,-247.13 -281,231.88 -558.3,827.26 -61.79,973.03 321.21,94.33 2004.88,-83.22 1868.32,-322.37 -204.46,-51.35 -720.42,-1501.6 -76.71,-1500.12 663.21,-219.96 449.03,-481.13 525.14,-648.69 91.1,-146.94 242.93,-49.85 324.34,46.33 427.34,731.54 -492.55,1729.75 -766.97,2013.76 -39.17,30.1 -144.26,65.11 -130.43,65 346.87,-2.7 605.34,-425.97 585.92,-435.95 -19.14,-9.83 -363.2,341.44 -518.4,418.95 -2.34,1.17 46.02,42.61 57.12,40.72 994.1,98.29 560.45,-781.56 1390.56,-1299.33 1097.42,-641.48 4151.58,-545.73 4060.9,-2204.17"/>
 </g>
</svg>
