<?xml version="1.0" encoding="UTF-8"?>
<!DOCTYPE svg PUBLIC "-//W3C//DTD SVG 1.1//EN" "http://www.w3.org/Graphics/SVG/1.1/DTD/svg11.dtd">
<!-- Creator: CorelDRAW 2020 (64-Bit) -->
<svg xmlns="http://www.w3.org/2000/svg" xml:space="preserve" width="14.5236in" height="8.77559in" version="1.1" style="shape-rendering:geometricPrecision; text-rendering:geometricPrecision; image-rendering:optimizeQuality; fill-rule:evenodd; clip-rule:evenodd"
viewBox="0 0 9755.65 5894.64"
 xmlns:xlink="http://www.w3.org/1999/xlink"
 xmlns:xodm="http://www.corel.com/coreldraw/odm/2003">
 <defs>
  <style type="text/css">
   <![CDATA[
    .str0 {stroke:black;stroke-width:46.65;stroke-linecap:square;stroke-miterlimit:22.9256}
    .fil0 {fill:none}
   ]]>
  </style>
 </defs>
 <g id="Layer_x0020_1">
  <metadata id="CorelCorpID_0Corel-Layer"/>
  <path class="fil0 str0" d="M30.26 30.26c504.6,1276.7 1486.14,846.35 1871.62,1322.67 633.15,596.76 1572.43,1396.82 2757.72,718.21 -463.79,-355.98 -1186.57,-411.63 -1536.98,17.35 285.26,453.19 1101.63,724.92 1562.21,1035.01 663.57,352.75 856.15,1239.56 788.92,1878.43 -776.27,-626.2 -790.66,-1163.26 -470.68,-1855.03 653.28,200.57 1921.22,357.12 2322.55,-398.33 -519.47,-138.73 -1014.07,47.83 -1285.71,500.57 266.09,303.93 880.21,497.91 1391.75,269.34 -300.86,-200.92 -705.96,-218.17 -1020.37,96.26 884.65,1107.83 2926.4,558.86 3316.38,2251.94"/>
 </g>
</svg>
