<?xml version="1.0" encoding="UTF-8"?>
<!DOCTYPE svg PUBLIC "-//W3C//DTD SVG 1.1//EN" "http://www.w3.org/Graphics/SVG/1.1/DTD/svg11.dtd">
<!-- Creator: CorelDRAW 2020 (64-Bit) -->
<svg xmlns="http://www.w3.org/2000/svg" xml:space="preserve" width="9.64694in" height="10.7166in" version="1.1" style="shape-rendering:geometricPrecision; text-rendering:geometricPrecision; image-rendering:optimizeQuality; fill-rule:evenodd; clip-rule:evenodd"
viewBox="0 0 5771.17 6411.09"
 xmlns:xlink="http://www.w3.org/1999/xlink"
 xmlns:xodm="http://www.corel.com/coreldraw/odm/2003">
 <defs>
  <style type="text/css">
   <![CDATA[
    .str0 {stroke:black;stroke-width:41.54;stroke-linecap:square;stroke-miterlimit:22.9256}
    .fil0 {fill:none}
   ]]>
  </style>
 </defs>
 <g id="Layer_x0020_1">
  <metadata id="CorelCorpID_0Corel-Layer"/>
  <path class="fil0 str0" d="M27.84 27.84c120.21,242.15 768.53,-17.42 1060.24,520.63 258.71,730.43 677.21,1746.5 1892.38,1691.28 -222.54,-470.76 -772.48,-808.99 -1224.66,-611.76 41.55,475.1 577.69,1022.61 816.36,1455.71 382.12,549.5 173.77,1330.41 -139.49,1809.16 -360.11,-812 -152.94,-1243.31 382.08,-1661.11 435.9,424.76 1376.65,1064.79 2002.03,629.66 -355.07,-321.32 -822.81,-374.81 -1222.25,-126.69 87.11,349.06 494.67,752.66 992.93,779.78 -156.57,-281.61 -470.48,-460.14 -847.51,-339.01 249.96,1237.65 1606.89,1243.64 2004.1,2208.5"/>
 </g>
</svg>
