<?xml version="1.0" encoding="UTF-8"?>
<!DOCTYPE svg PUBLIC "-//W3C//DTD SVG 1.1//EN" "http://www.w3.org/Graphics/SVG/1.1/DTD/svg11.dtd">
<!-- Creator: CorelDRAW 2020 (64-Bit) -->
<svg xmlns="http://www.w3.org/2000/svg" xml:space="preserve" width="38.1231in" height="8.43442in" version="1.1" style="shape-rendering:geometricPrecision; text-rendering:geometricPrecision; image-rendering:optimizeQuality; fill-rule:evenodd; clip-rule:evenodd"
viewBox="0 0 36720.31 8124.06"
 xmlns:xlink="http://www.w3.org/1999/xlink"
 xmlns:xodm="http://www.corel.com/coreldraw/odm/2003">
 <defs>
  <style type="text/css">
   <![CDATA[
    .str0 {stroke:#373435;stroke-width:334.44;stroke-miterlimit:2.61313}
    .fil0 {fill:none}
   ]]>
  </style>
 </defs>
 <g id="Layer_x0020_1">
  <metadata id="CorelCorpID_0Corel-Layer"/>
  <path class="fil0 str0" d="M66.23 7215.61c2201.78,949.78 4706.78,743.73 6013.14,-1451.68 1401.65,-2355.56 3699.86,-2986.3 6060.16,-1608.78 2387.77,1393.55 211.43,3569.36 -678.83,3036.39 -735.43,-440.28 -630.46,-1583.4 371.52,-2197.02 1461.1,-894.79 3351.81,-1440.19 4494.95,168.56 905.31,1274.05 2600.41,3888.09 4451.38,2293.34 929.55,-800.88 1232.4,-2737.04 525.17,-3996.15 -544.76,-969.87 -1793.32,-3215.56 -535.48,-3292.2 1082.59,-65.96 1073.51,1662.18 -555,3023.88 -1241.06,1037.73 89.5,3256.99 782.03,3890.65 850.35,778.07 1958.27,625.31 2765.77,73.39 1425.9,-974.59 2727.58,-5740.17 4803.4,-2659.13 2099.98,3116.9 -1743.15,4227.35 -1087.04,1150.11 616.2,-2890.05 3244.68,-1352.84 4913.49,-752.22 2282.58,821.52 3082.08,599.01 3959.46,-1702.8 223.63,-586.69 105.23,-1122.93 317.63,-1113.42"/>
 </g>
</svg>
