<?xml version="1.0" encoding="UTF-8"?>
<!DOCTYPE svg PUBLIC "-//W3C//DTD SVG 1.1//EN" "http://www.w3.org/Graphics/SVG/1.1/DTD/svg11.dtd">
<!-- Creator: CorelDRAW 2020 (64-Bit) -->
<svg xmlns="http://www.w3.org/2000/svg" xml:space="preserve" width="40.6573in" height="9.3133in" version="1.1" style="shape-rendering:geometricPrecision; text-rendering:geometricPrecision; image-rendering:optimizeQuality; fill-rule:evenodd; clip-rule:evenodd"
viewBox="0 0 41822.65 9580.23"
 xmlns:xlink="http://www.w3.org/1999/xlink"
 xmlns:xodm="http://www.corel.com/coreldraw/odm/2003">
 <defs>
  <style type="text/css">
   <![CDATA[
    .str0 {stroke:#373435;stroke-width:214.31;stroke-miterlimit:2.61313}
    .fil0 {fill:none}
   ]]>
  </style>
 </defs>
 <g id="Layer_x0020_1">
  <metadata id="CorelCorpID_0Corel-Layer"/>
  <path class="fil0 str0" d="M42.44 8780.24c2351.42,1014.32 4975.77,879.79 6421.79,-1550.34 1446.02,-2430.12 4222.37,-3297.82 6472,-1718.11 2249.63,1579.7 1708.01,3419.8 389.42,3442.75 -1318.59,22.95 -2032.84,-1740.89 -717.61,-2546.35 1315.23,-805.45 3506.58,-1802.23 4800.42,180.02 1293.84,1982.25 3269.16,3728.4 4753.89,2449.2 1484.74,-1279.21 1229.39,-3077.5 560.86,-4267.72 -668.53,-1190.23 -1950.19,-3454.08 -571.88,-3515.93 1378.32,-61.86 1196.74,1505.24 -592.72,3229.38 -1789.45,1724.14 307.91,3648.85 835.18,4155.06 527.26,506.21 1961.16,936.37 2953.73,78.38 992.57,-857.99 2900.05,-6149.41 5129.84,-2839.84 2229.79,3309.57 -1797.44,4171.79 -1160.92,1228.27 636.52,-2943.52 3353.79,-847.83 5247.4,-803.34 3010.14,70.73 7414.28,-2644.01 7139.4,-6293.61"/>
 </g>
</svg>
