<?xml version="1.0" encoding="UTF-8"?>
<!DOCTYPE svg PUBLIC "-//W3C//DTD SVG 1.1//EN" "http://www.w3.org/Graphics/SVG/1.1/DTD/svg11.dtd">
<!-- Creator: CorelDRAW 2020 (64-Bit) -->
<svg xmlns="http://www.w3.org/2000/svg" xml:space="preserve" width="2.71495in" height="2.28004in" version="1.1" style="shape-rendering:geometricPrecision; text-rendering:geometricPrecision; image-rendering:optimizeQuality; fill-rule:evenodd; clip-rule:evenodd"
viewBox="0 0 357.81 300.49"
 xmlns:xlink="http://www.w3.org/1999/xlink"
 xmlns:xodm="http://www.corel.com/coreldraw/odm/2003">
 <defs>
  <style type="text/css">
   <![CDATA[
    .fil0 {fill:#FDFDFF}
   ]]>
  </style>
 </defs>
 <g id="Layer_x0020_1">
  <metadata id="CorelCorpID_0Corel-Layer"/>
  <path class="fil0" d="M232.88 238.62l18.52 -0.32 0.08 16.93 -18.4 0.16 -0.2 -16.77zm57.84 -198.23l16.79 0.13 0.02 16.91 -17.04 -0.03 0.22 -17.02zm-163.96 6.41l63.12 0.05 0.02 18.39c-11,1.94 -55.67,-1.25 -63.49,0.84l0 43.73 63.26 0.4 0.11 18.77 -63.2 0.01 -0.13 44.3 63.14 0.08 0.28 18.59 -189.83 0.25 -0.06 44.16 189.05 0.17 0.19 63.92 168.29 -0.06 0.28 -106.13 -43.73 0 -0.17 62.45 -16.29 0.04 0 -64.46 -63.01 -0.13 -0.15 -151.54 15.56 -0.27 0.16 57.43c11.44,0.49 92.02,1.12 97.61,-0.55l-0.01 -97.13 -220.46 -0.14c-1.42,7.35 -1.51,39.14 -0.56,46.8z"/>
 </g>
</svg>
