<?xml version="1.0" encoding="UTF-8"?>
<!DOCTYPE svg PUBLIC "-//W3C//DTD SVG 1.1//EN" "http://www.w3.org/Graphics/SVG/1.1/DTD/svg11.dtd">
<!-- Creator: CorelDRAW 2020 (64-Bit) -->
<svg xmlns="http://www.w3.org/2000/svg" xml:space="preserve" width="12.9117in" height="6.52144in" version="1.1" style="shape-rendering:geometricPrecision; text-rendering:geometricPrecision; image-rendering:optimizeQuality; fill-rule:evenodd; clip-rule:evenodd"
viewBox="0 0 8596.98 4342.17"
 xmlns:xlink="http://www.w3.org/1999/xlink"
 xmlns:xodm="http://www.corel.com/coreldraw/odm/2003">
 <defs>
  <style type="text/css">
   <![CDATA[
    .str0 {stroke:black;stroke-width:46.24;stroke-linecap:square;stroke-miterlimit:22.9256}
    .fil0 {fill:none}
   ]]>
  </style>
 </defs>
 <g id="Layer_x0020_1">
  <metadata id="CorelCorpID_0Corel-Layer"/>
  <path class="fil0 str0" d="M32.64 98.53c224.18,200.68 787.2,-335.17 1310.77,100.59 568.86,648.23 1420.76,1525.78 2654.02,967.21 -424.3,-394.76 -1132.34,-517.42 -1518.33,-126.94 239.01,473.94 1019.15,818.61 1444.58,1167.78 621.76,410.29 728.67,1303.46 602.44,1927.59 -707.33,-690.7 -671.19,-1222.02 -290.59,-1874.67 625.86,259.15 1862.39,532.49 2329.24,-175.38 -499.62,-185.6 -1005.18,-47.86 -1315.66,373.45 234.09,324.86 821.93,573.84 1348.15,396.24 -278.06,-226.47 -676.2,-281.46 -1015.93,-0.65 769.14,1176.13 2174.2,622.33 2982.95,1455.73"/>
 </g>
</svg>
